<?xml version="1.0" encoding="UTF-8" standalone="no"?>
<!DOCTYPE svg PUBLIC "-//W3C//DTD SVG 1.1//EN" "http://www.w3.org/Graphics/SVG/1.1/DTD/svg11.dtd">
<svg width="100%" height="100%" viewBox="0 0 274 73" version="1.1" xmlns="http://www.w3.org/2000/svg" xmlns:xlink="http://www.w3.org/1999/xlink" xml:space="preserve" xmlns:serif="http://www.serif.com/" style="fill-rule:evenodd;clip-rule:evenodd;stroke-linejoin:round;stroke-miterlimit:2;">
    <g transform="matrix(1,0,0,1,0,-37)">
        <path d="M30.767,99.535C47.76,99.535 61.535,85.76 61.535,68.767C61.535,51.775 47.76,38 30.767,38C13.775,38 0,51.775 0,68.767C0,85.76 13.775,99.535 30.767,99.535Z" style="fill:rgb(44,160,28);fill-rule:nonzero;"/>
    </g>
    <g transform="matrix(1,0,0,1,0,-37)">
        <path d="M20.508,56.8C13.896,56.8 8.543,62.161 8.543,68.766C8.543,75.37 13.896,80.73 20.508,80.73L22.217,80.73L22.217,76.286L20.507,76.286C16.383,76.283 12.99,72.89 12.987,68.766C12.987,64.616 16.357,61.244 20.507,61.244L24.617,61.244L24.617,84.491C24.618,86.928 26.623,88.933 29.06,88.934L29.06,56.801L20.507,56.801L20.508,56.8ZM41.033,80.73C47.644,80.73 52.998,75.37 52.998,68.765C52.998,62.161 47.645,56.801 41.033,56.801L39.324,56.801L39.324,61.245L41.034,61.245C45.184,61.245 48.554,64.616 48.554,68.766C48.554,72.916 45.184,76.288 41.034,76.288L36.924,76.288L36.924,53.04C36.923,50.602 34.918,48.597 32.48,48.597L32.48,80.731L41.034,80.731L41.034,80.729L41.033,80.73Z" style="fill:white;fill-rule:nonzero;"/>
    </g>
    <g transform="matrix(1,0,0,1,0,-37)">
        <path d="M90.755,107L85.995,107L85.995,94.946L85.915,94.946C84.684,96.846 82.263,98.036 79.61,98.036C73.819,98.036 70.25,93.435 70.25,87.883C70.25,82.33 74.058,77.887 79.487,77.887C82.974,77.887 85.121,79.589 86.071,81.1L86.187,81.1L86.187,78.44L90.747,78.44L90.747,106.999L90.755,106.999L90.755,107ZM80.567,94.07C84.054,94.07 86.159,90.94 86.159,87.965C86.159,84.991 84.06,81.778 80.567,81.778C76.882,81.778 75.097,84.91 75.097,87.884C75.09,90.858 76.875,94.072 80.567,94.072L80.567,94.07ZM112.121,97.482L107.601,97.482L107.601,94.426L107.519,94.426C106.686,96.326 104.429,98.036 101.612,98.036C96.655,98.036 94.59,94.226 94.59,90.344L94.59,78.447L99.349,78.447L99.349,88.997C99.349,91.261 99.862,94.07 102.917,94.07C105.973,94.07 107.361,91.452 107.361,88.915L107.361,78.447L112.119,78.447L112.119,97.482L112.121,97.482ZM116.902,78.031L121.661,78.031L121.661,97.066L116.902,97.066L116.902,78.031ZM139.452,83.72C138.7,82.646 137.072,81.853 135.527,81.853C132.04,81.853 130.29,84.984 130.29,87.958C130.29,90.932 132.075,94.064 135.684,94.064C137.154,94.064 138.774,93.469 139.691,92.362L142.665,95.377C141.078,97.079 138.459,98.037 135.643,98.037C130.009,98.037 125.332,94.311 125.332,87.967C125.332,81.622 129.934,77.894 135.527,77.894C138.303,77.894 141.195,79.002 142.705,80.868L139.452,83.719L139.452,83.72ZM145.055,67.504L149.813,67.504L149.813,86.456L149.93,86.456L157.149,78.443L163.255,78.443L155.009,87.051L163.775,97.478L157.471,97.478L149.936,87.721L149.82,87.721L149.82,97.478L145.062,97.478L145.062,67.504L145.055,67.504ZM170.703,67.504L170.703,80.87L170.819,80.87C171.811,79.64 173.712,77.896 177.205,77.896C182.64,77.896 186.442,82.258 186.442,87.892C186.442,93.526 182.873,98.046 177.082,98.046C174.422,98.046 171.844,96.816 170.539,94.634L170.457,94.634L170.457,97.492L165.938,97.492L165.938,67.504L170.703,67.504ZM176.138,81.78C172.651,81.78 170.546,84.993 170.546,87.967C170.546,90.941 172.644,94.073 176.138,94.073C179.824,94.073 181.607,90.859 181.607,87.884C181.607,84.909 179.824,81.779 176.138,81.779L176.138,81.78ZM198.859,77.894C204.609,77.894 209.211,81.901 209.211,87.89C209.211,93.88 204.609,98.044 198.859,98.044C193.109,98.044 188.508,93.88 188.508,87.89C188.508,81.901 193.109,77.894 198.859,77.894ZM198.859,94.072C202.626,94.072 204.37,90.859 204.37,87.883C204.37,84.908 202.626,81.778 198.859,81.778C195.092,81.778 193.348,84.91 193.348,87.883C193.348,90.857 195.092,94.072 198.859,94.072ZM221.636,77.894C227.386,77.894 231.988,81.901 231.988,87.89C231.988,93.88 227.386,98.044 221.636,98.044C215.886,98.044 211.285,93.88 211.285,87.89C211.285,81.901 215.886,77.894 221.636,77.894ZM221.636,94.072C225.404,94.072 227.147,90.859 227.147,87.883C227.147,84.908 225.404,81.778 221.636,81.778C217.869,81.778 216.126,84.91 216.126,87.883C216.119,90.857 217.869,94.072 221.636,94.072ZM234.867,67.504L239.626,67.504L239.626,86.456L239.742,86.456L246.963,78.443L253.068,78.443L244.823,87.051L253.588,97.478L247.284,97.478L239.749,87.721L239.633,87.721L239.633,97.478L234.874,97.478L234.874,67.504L234.867,67.504ZM266.572,83.52C265.737,82.413 264.151,81.456 262.408,81.456C260.904,81.456 259.351,82.011 259.351,83.521C259.351,85.031 260.822,85.387 263.474,86.016C266.292,86.693 269.621,87.958 269.621,91.684C269.621,96.327 265.853,98.029 261.69,98.029C258.757,98.029 255.701,96.922 253.875,94.898L257.006,91.964C258.039,93.311 259.824,94.344 261.881,94.344C263.269,94.344 264.938,93.789 264.938,92.08C264.938,90.494 263.467,90.016 260.576,89.345C257.759,88.668 254.942,87.52 254.942,83.951C254.942,79.705 258.75,77.887 262.517,77.887C265.252,77.887 268.11,78.837 269.655,80.779L266.572,83.521L266.572,83.52ZM122.383,52.46C122.383,57.286 126.246,60.814 131.155,60.814C136.065,60.814 139.934,57.294 139.934,52.46L139.934,41.377L135.176,41.377L135.176,51.893C135.176,54.497 133.432,56.241 131.142,56.241C128.851,56.241 127.107,54.497 127.107,51.893L127.107,41.377L122.355,41.377L122.383,52.46ZM152.648,45.828L158.324,45.828L158.324,60.43L163.076,60.43L163.076,45.828L168.743,45.828L168.743,41.377L152.648,41.377L152.648,45.828ZM149.572,41.377L144.82,41.377L144.82,60.433L149.572,60.433L149.572,41.377ZM103.188,45.828L108.863,45.828L108.863,60.43L113.615,60.43L113.615,45.828L119.283,45.828L119.283,41.377L103.189,41.377L103.189,45.827L103.188,45.827L103.188,45.828ZM78.244,41.377L73.492,41.377L73.492,60.433L78.244,60.433L78.244,41.377ZM100.683,49.35C100.683,44.524 96.813,40.996 91.904,40.996C86.994,40.996 83.125,44.517 83.125,49.351L83.125,60.434L87.877,60.434L87.877,49.918C87.877,47.313 89.62,45.57 91.911,45.57C94.201,45.57 95.945,47.313 95.945,49.918L95.945,60.434L100.697,60.434L100.683,49.351L100.683,49.35Z" style="fill-rule:nonzero;"/>
    </g>
</svg>
