<svg version="1.1" id="Layer_1" xmlns="http://www.w3.org/2000/svg" x="0px" y="0px" width="145.2px" height="145.2px" viewBox="0 0 145.2 145.2" xml:space="preserve"><linearGradient id="SVGID_1_" gradientUnits="userSpaceOnUse" x1="0" y1="72.5881" x2="145.1763" y2="72.5881"><stop offset="0" style="stop-color:#96b2dd"/><stop offset="0.1808" style="stop-color:#9fb9e0"/><stop offset="0.463" style="stop-color:#a7bee3"/><stop offset="1" style="stop-color:#a9bfe3"/></linearGradient><circle fill="url(#SVGID_1_)" cx="72.6" cy="72.6" r="72.6"/><linearGradient id="SVGID_00000183227612191201414500000017028745071367177903_" gradientUnits="userSpaceOnUse" x1="3.8822" y1="107.2681" x2="145.1648" y2="107.2681"><stop offset="0.2931" style="stop-color:#93ca68"/><stop offset="0.3614" style="stop-color:#90c964"/><stop offset="0.7702" style="stop-color:#7fc24e"/><stop offset="1" style="stop-color:#78c047"/></linearGradient><path fill="url(#SVGID_00000183227612191201414500000017028745071367177903_)" d="M145.1 69.4c.1 2.7.1 6.5-.3 10.2-.3 2.9-.8 5.9-1.3 8.3-.2.8-.4 1.6-.5 2.3-.1.5-.3 1-.4 1.4-.1.5-.3.9-.4 1.2-.2.7-.4 1.2-.4 1.5-.5 1.4-.9 2.8-1.5 4.2-.6 1.6-1.3 3.1-2 4.6-1.3 2.7-2.7 5.3-4.3 7.8-3.2 5.2-7.1 9.9-11.5 14.1-9.3 8.9-21 15.4-34.1 18.3-3.2.7-6.4 1.2-9.8 1.5-6.2.5-12.5.2-18.5-.8-2-.3-4-.8-5.9-1.3-1.3-.3-2.6-.7-3.8-1.1-4-1.3-7.8-2.9-11.4-4.8-1.5-.8-3.1-1.7-4.5-2.6-1.3-.8-2.6-1.7-3.9-2.5-5.5-3.8-10.3-8.4-14.5-13.6-1.6-2-4.6-5.8-7.1-10.6-2-3.7-3.4-6.6-5.1-11.7 0 0 24.5-6.8 33.2-10.8 9.7-4.5 28.3-2.8 37.6-5.4 34-9.4 26.4 1 45.7-1 6.7-.6 24.7-9.2 24.7-9.2z"/><g fill="none" stroke="#242F68" stroke-miterlimit="10"><path d="M136.8 92.7c-8.5 27-33.7 46.5-63.4 46.5-23.8 0-44.7-12.5-56.4-31.3M7 68.5C9.1 33.8 38 6.2 73.3 6.2c20.1 0 38.1 8.9 50.3 23.1"/></g><g><path fill="#242F68" d="M92.6 95.7c6.2.1 11.2.4 17.4.5 1.1 0 2.2 0 3.2-.4 1-.5 1.7-1.3 2.8-1.7.6-.2 1.2-.3 1.8-.4 2.1-.4 4.1-1.3 6-2.3.2-.1.3-.2.5-.3.2-.2.2-.5.3-.7.1-.4.2-.7.4-1 .1-.2.3-.4.5-.5.2-.1.5-.1.7-.1 2-.1 3.7-2.2 3.4-4.2.8.3 1.9-.2 2.1-1.1.1-.6-.1-1.2.1-1.7.2-.6.7-1 1.2-1.4 1.1-.8 2.1-1.6 3.3-2.1.5-.2.9-.4 1.4-.6.6-.3 1.1-.8 1.6-1.3 2.2-2.2 4.6-4 5.9-6.9-.5-.1-.9-.1-1.2-.1-1.1-.3-1.2-1.7-2.4-2.7-1-.8-2.2-.3-2.4-1.3-.1-.4-.1-.7-.1-1.1-.1-.6-.4-1.1-.9-1.4-.3-.2-.7-.4-.9-.7-.2-.3-1.3-2-1.3-2.8v-.7c-.1-.3-.3-.6-.5-.9-.4-.6-.7-1.3-1.1-2-.4-.6-1-1.2-1.8-1.3.5-.3.9-1 .8-1.6 0-.3-.1-.6 0-.8.1-.2.3-.3.4-.4.2-.3 0-.7-.2-1-.4-.9-.2-1.8-.3-2.8 0-.9-.3-2-1.2-2.4l-.3-.1c-.1-.8-.7-1.5-1.4-1.8-.7-.2-1.5-.1-1.9-.7-.5-1.2-.5-2.3-.5-3.6.1-.9-.9-.7-1.5-.6-1.3.3-2.4 1-3.3 1.9-.3.4-.5 1-1 1.3-.5.4-1.1.3-1.7.3-.2.1-1.1.1-1.3-.1-1.5-1-3.1-1.7-4.8-1.6-.8.1-.9.9-1 1.5s-1 .2-1.4 0c-.7-.3-.5-1.1-.5-1.7-.9-.9-2.1-1.7-3.4-1.8-1.6-.1-4.5.7-4.9-1.5-.1-.5.2-1.2-.1-1.7-.3-.4-.8-.9-1-1.3-.3-.5 0-1.3-.2-1.8-.3-.6-1-1.3-1-1.5-.3-.4-.4-.2-.9-.5-1.3-.6-2.5.5-3.8.7-1.1.2-1.5-1-2.3-1.4-.8-.3-1.5.3-2.1.8h-.1c-.3.5-.7.9-.8 1.5s.4 1.2.4 1.2c.6.3-.5 1.7-.6 2.2 0 .2 1.1 2.3 1.2 2.9 0 0-.7.1-1.2.1-1.2.1-2.2.9-3.1 1.7-.6.5-1.5 1.1-2.2.7-.6-.4-.9-1.4-1.6-1.3-.3 0-.5.3-.8.4-.6.2-1.4-.2-1.9.2-.3.2-.4.6-.4 1-.1 1.2.9 3.8.8 4-.1.5-.8.4-1.2.8-.3.3-.2 1-.6 1.3-.2.1-.4.1-.6.2-1.2.3-1.7 1.8-2 3-.2.8-.7 1.7-1.5 1.7-.4 0-.9-.2-1.3 0-.3.1-.5.5-.7.8-.4 1-.9 2-1.3 3l.4-.4c-.6.7-1.2 1.6-1 2.5.1.5.3 1.1-.1 1.3-.2.2-.6.1-.8.3-.1.2-.9.1-1-.1-.4-.7-1.4-.6-2.1-1-.8-.3-1.3-1.1-1.4-1.9-.1-.4 0-.9-.3-1.2-.2-.4-.8-.5-1.1-.2 0 0-1.7.4-2.1.5-1.1.3-2.1 2.7-1.5 2.8.7 0-.3 1.3-.1 1.9.1.3-.4.9-.7.8-.4 0-3.5-.6-3.9-1.2s-1.4-1-1.8-.3c-.1.2-1 .9-1.4.9-.8.1-1.2.4-1.5 1.1-.3.8-1.3.5-1.9 1.1-1-.2-1.6-.2-2.8-1-1-.7-2.2-1.3-3.4-1-.5.2-1.2.4-1.4-.1-.1-.2-.7-.4-1.2-.8-.4-.3-.9-.5-2.1-.5-1.2 0-2.9.5-4 1.9-.6.7-.1 1.5 0 1.7.2.4.5.9.2 1.2-.3.3-1.4-.1-1.5-.1-.2 0-3.1 3.4-2.7 4.1.2.3.5 1.3.5 1.5.1.5.7.8.9 1.2.2.5-.2 1.2-.7 1.5-.5.3-5.1 1.3-5.4 1.3-.6-.1-1.1.4-1.4.9-.5.8-.8 1.7-.8 2.6 0 .5.1 1.1.3 1.6.1.3.3.5.5.8.5.8.5 1.8.1 2.7 0 0-.5.8-.9.6s-.8-.5-1.2-.8c-.6-.5-1.3-.9-2-1.3-.4-.2-.9-.5-1.3-.7-1.1-.6-2.2-1.4-3.5-1.3-3 .1-4.9 2.6-4.1 5.6.1.4.9.9 1.1 1.3.4.8-.3 1.6-.6 2.5 0 0-.7 2.5-1 2.8-.2.2-.8 1.8-.9 3.1-.8.2-2.5-.8-2.7-.9-1.9-.8-3.2.3-3.6 1.4-.6 1.4-.6 1.9-.1 2.3.3.2 3.4.2 3.6.4 0 0 1.1.1 2.1.1 5.5.2 11 .3 16.5.5 2 .1 3.9.1 5.9.2l.3-.1.2-.2c-.1.2-.4.2-.6.1.3.2.6 0 .7-.3.1-.3.1-.6 0-.9-.2-1-.3-2-.5-3l-.1-.3c1.1.2 2.3.4 3.4.6l-.3.1c.1-.2.4-.1.5.1.1.2.2.4.4.5.2.1.4.1.6.1l8.7.3h-1l18.6.3c1.1 0 2.2 0 3.2.1 2.7 0 5.4.1 8 .1 6.1.1 12.1.2 18.1.3z"/></g><g><linearGradient id="SVGID_00000065763403925231944840000016318930927469237168_" gradientUnits="userSpaceOnUse" x1="38.9" y1="77.8577" x2="55.6965" y2="77.8577"><stop offset="0" style="stop-color:#a8d384"/><stop offset="7.934004e-02" style="stop-color:#a5d27f"/><stop offset="0.3735" style="stop-color:#9cce71"/><stop offset="0.6766" style="stop-color:#96cb69"/><stop offset="1" style="stop-color:#94ca66"/></linearGradient><path fill="url(#SVGID_00000065763403925231944840000016318930927469237168_)" d="m50.4 87.2-7.4-9v9h-4.2V68.5H43v9.3l7.3-9.3h4.8l-7.8 9.3 8.3 9.4h-5.2z"/><linearGradient id="SVGID_00000084509950438435323750000014875151270122650759_" gradientUnits="userSpaceOnUse" x1="55.2047" y1="77.8577" x2="73.8381" y2="77.8577"><stop offset="0" style="stop-color:#a8d384"/><stop offset="7.934004e-02" style="stop-color:#a5d27f"/><stop offset="0.3735" style="stop-color:#9cce71"/><stop offset="0.6766" style="stop-color:#96cb69"/><stop offset="1" style="stop-color:#94ca66"/></linearGradient><path fill="url(#SVGID_00000084509950438435323750000014875151270122650759_)" d="M66.6 79.9v7.3h-4.2v-7.5l-7.2-11.1h4.6l4.8 8.1 4.6-8.1h4.6l-7.2 11.3z"/><g fill="#FFF"><path d="M75.1 87.4V68.5h3.3c2.4 0 4.2.2 5.2.7 1.6.6 2.8 1.8 3.7 3.3.9 1.6 1.3 3.5 1.3 5.6 0 1.9-.3 3.5-1 5s-1.6 2.5-2.7 3.2c-1.1.7-2.7 1-4.7 1h-5.1zm1.6-1.8h1.9c2.2 0 3.8-.2 4.6-.5 1.2-.5 2.2-1.3 2.9-2.5.7-1.2 1-2.7 1-4.4 0-1.8-.4-3.4-1.1-4.7-.8-1.3-1.8-2.2-3.1-2.7-1-.4-2.7-.5-5-.5h-1.1v15.3zM98.3 68c2.4 0 4.5 1 6.1 2.9 1.6 1.9 2.5 4.2 2.5 7s-.8 5.1-2.5 7c-1.6 1.9-3.6 2.9-6 2.9s-4.4-1-6.1-2.9c-1.6-1.9-2.5-4.2-2.5-6.9 0-1.8.4-3.5 1.1-5 .7-1.5 1.8-2.8 3.1-3.6 1.4-.9 2.8-1.4 4.3-1.4zm.1 1.9c-1.2 0-2.3.4-3.4 1.1-1.1.7-1.9 1.7-2.5 2.9-.6 1.2-.9 2.6-.9 4.1 0 2.2.7 4.1 2 5.7 1.3 1.5 2.9 2.3 4.8 2.3 1.3 0 2.4-.4 3.5-1.1 1.1-.7 1.9-1.7 2.5-2.9.6-1.2.9-2.6.9-4.1 0-1.5-.3-2.8-.9-4.1-.6-1.2-1.4-2.2-2.5-2.9-1.1-.7-2.3-1-3.5-1zM108.1 68.5h3.6c2 0 3.3.1 4 .3 1.1.3 1.9.8 2.6 1.6.7.8 1 1.9 1 3.1 0 1-.2 1.9-.7 2.7-.5.8-1.1 1.4-2 1.8-.9.4-2 .6-3.5.6l6.4 8.7h-2.2l-6.4-8.7h-1v8.7h-1.8V68.5zm1.8 1.9v6.4h3.1c1.2 0 2.1-.1 2.7-.4.6-.2 1-.6 1.3-1.1.3-.5.5-1.1.5-1.8 0-.6-.2-1.2-.5-1.7s-.8-.9-1.3-1.1c-.5-.2-1.4-.3-2.6-.3h-3.2z"/></g></g></svg>